<?xml version="1.0" encoding="UTF-8" standalone="no"?>
<!DOCTYPE svg PUBLIC "-//W3C//DTD SVG 1.1//EN" "http://www.w3.org/Graphics/SVG/1.1/DTD/svg11.dtd">
<svg width="100%" height="100%" viewBox="0 0 600 600" version="1.1" xmlns="http://www.w3.org/2000/svg" xmlns:xlink="http://www.w3.org/1999/xlink" xml:space="preserve" xmlns:serif="http://www.serif.com/" style="fill-rule:evenodd;clip-rule:evenodd;stroke-linejoin:round;stroke-miterlimit:2;">
    <g transform="matrix(1.71429,0,0,1.71429,-2.26415e-05,2.26415e-06)">
        <g id="g3375">
            <g id="g3381">
                <g id="g3355">
                    <path id="path21" d="M278.704,175C278.704,232.312 232.312,278.704 175,278.704L175,175L278.704,175ZM175,71.296L175,175L71.296,175C71.296,117.688 117.688,71.296 175,71.296Z" style="fill-rule:nonzero;"/>
                </g>
            </g>
        </g>
    </g>
    <g id="curvegroep" transform="matrix(1.71429,0,0,1.71429,0,0)">
        <path id="path14" d="M175,71.296L175,76.982C229.042,76.982 273.018,120.948 273.018,175L278.704,175C278.704,117.73 232.27,71.296 175,71.296M175,273.018C120.958,273.018 76.982,229.052 76.982,175L71.296,175C71.296,232.27 117.73,278.704 175,278.704M175,0C78.353,0 0,78.353 0,175C0,271.647 78.353,350 175,350C271.647,350 350,271.647 350,175C350,78.353 271.647,0 175,0ZM338.62,175C338.62,265.36 265.371,338.62 175,338.62C84.629,338.62 11.38,265.36 11.38,175C11.38,84.64 84.64,11.38 175,11.38C265.36,11.38 338.62,84.64 338.62,175Z" style="fill-rule:nonzero;"/>
    </g>
    <g id="Group" transform="matrix(1.71429,0,0,1.71429,81.4815,37.037)">
        <path id="bmw" d="M52.684,68.972C58.276,63.122 61.442,56.363 55.85,49.911C52.807,46.41 47.698,45.644 43.463,47.369L43.041,47.533L43.175,47.165C43.802,45.501 44.203,40.193 39.649,36.528C37.429,34.741 34.643,34.077 31.826,34.363C26.573,34.894 22.533,38.457 11.534,50.636C8.214,54.311 3.382,60.11 0.483,63.867L30.695,92.33C40.708,81.324 44.789,77.231 52.684,68.972ZM13.261,62.009C19.347,54.618 25.812,47.91 28.742,45.256C29.667,44.419 30.675,43.582 31.898,43.255C33.882,42.714 35.928,44.113 36.39,46.134C36.853,48.166 35.568,50.095 34.139,51.688C30.922,55.292 19.12,67.552 19.12,67.552L13.261,62.009ZM25.093,73.157C25.093,73.157 36.586,61.09 40.338,57.231C41.828,55.7 42.784,54.771 43.812,54.271C45.138,53.627 46.588,53.495 47.883,54.352C49.158,55.2 49.744,56.66 49.425,58.109C49.045,59.835 47.626,61.478 46.454,62.734C44.871,64.418 31.24,78.905 31.22,78.925L25.093,73.157ZM130.923,35.027L140.596,13.506L141.213,11.597L141.038,13.588L142.056,42.347C145.448,42.663 148.954,43.133 152.408,43.704L150.835,1.113C146.004,0.582 141.193,0.204 136.382,0L126.852,23.491L126.513,25.236L126.174,23.491L116.655,0C111.844,0.204 107.033,0.582 102.201,1.113L100.629,43.704C104.083,43.133 107.588,42.673 110.98,42.347L111.998,13.588L111.823,11.597L112.44,13.506L122.113,35.027L130.923,35.027L130.923,35.027ZM211.26,79.548C213.634,82.08 217.057,86.163 218.98,88.644L254.383,66.327C252.615,64.03 249.798,60.539 247.691,58.079L225.271,72.8L223.739,74.107L224.88,72.453L234.78,52.831L227.779,45.879L208.011,55.71L206.346,56.843L207.672,55.322L222.506,33.067C219.895,30.862 217.386,28.84 214.189,26.39L191.718,61.519C194.565,63.693 198.317,66.889 200.712,69.063L221.868,58.16L223.225,57.17L222.228,58.518L211.26,79.548Z" style="fill-rule:nonzero;"/>
    </g>
</svg>
